<svg width="45" height="45" viewBox="0 0 45 45" fill="none" xmlns="http://www.w3.org/2000/svg">
<path d="M37.9688 39.375H26.5781C24.8906 39.375 23.3437 38.6719 22.0781 37.5469L4.21875 19.6875L14.0625 8.4375C14.0625 13.9219 19.8281 19.6875 25.3125 19.6875H26.7188C26.5781 26.0156 28.9687 30.6563 35.1562 32.625C35.5781 32.7656 35.8594 32.9062 36.2812 32.9062C37.9687 33.3281 39.0938 35.1563 38.6719 36.8438L37.9688 39.375Z" stroke="black" stroke-width="2" stroke-miterlimit="10" stroke-linecap="round" stroke-linejoin="round"/>
<path d="M1.40625 22.5L20.6719 41.7656C21.7969 42.8906 23.4844 43.5938 25.1719 43.5938H37.9688" stroke="black" stroke-width="2" stroke-miterlimit="10" stroke-linecap="round" stroke-linejoin="round"/>
<path d="M14.7656 23.9062C15.9306 23.9062 16.875 22.9619 16.875 21.7969C16.875 20.6319 15.9306 19.6875 14.7656 19.6875C13.6006 19.6875 12.6562 20.6319 12.6562 21.7969C12.6562 22.9619 13.6006 23.9062 14.7656 23.9062Z" stroke="black" stroke-width="2" stroke-miterlimit="10" stroke-linecap="round" stroke-linejoin="round"/>
<path d="M21.0938 26.7188H27.4219" stroke="black" stroke-width="2" stroke-miterlimit="10" stroke-linecap="round" stroke-linejoin="round"/>
<path d="M23.9062 30.9375H31.6406" stroke="black" stroke-width="2" stroke-miterlimit="10" stroke-linecap="round" stroke-linejoin="round"/>
<path d="M39.375 1.40625L29.1094 11.6719C26.7188 14.0625 25.875 17.4375 26.7188 20.6719" stroke="black" stroke-width="2" stroke-miterlimit="10" stroke-linecap="round" stroke-linejoin="round"/>
<path d="M14.0625 9.84375C16.7344 9 19.125 7.03125 20.5313 4.64062L22.5 1.40625" stroke="black" stroke-width="2" stroke-miterlimit="10" stroke-linecap="round" stroke-linejoin="round"/>
</svg>
