<svg width="54" height="54" viewBox="0 0 54 54" fill="none" xmlns="http://www.w3.org/2000/svg">
<path d="M54 23.22H50.1736C49.9613 22.0952 48.9748 21.06 47.7889 21.06H46.1689C46.0766 21.06 45.9 20.7176 45.9 20.7279V17.1904C45.9 15.8506 44.8087 14.58 43.4689 14.58H39.6889C38.3492 14.58 37.26 15.8506 37.26 17.1904V23.22H16.74V17.1904C16.74 15.8506 15.6487 14.58 14.3089 14.58H10.5289C9.18918 14.58 8.1 15.8506 8.1 17.1904V20.7614C8.1 20.7511 7.92126 21.06 7.82892 21.06H6.20892C5.03496 21.06 4.0527 22.1114 3.82806 23.22H0V30.78H3.78432C3.8151 32.0938 4.88808 32.94 6.20892 32.94H7.82892C7.92126 32.94 8.1 33.1371 8.1 33.1268V37.1704C8.1 38.5101 9.18918 39.42 10.5289 39.42H14.3089C15.6487 39.42 16.74 38.5101 16.74 37.1704V30.78H37.26V37.1704C37.26 38.5101 38.3492 39.42 39.6889 39.42H43.4689C44.8087 39.42 45.9 38.5101 45.9 37.1704V33.0928C45.9 33.1031 46.0766 32.94 46.1689 32.94H47.7889C49.0984 32.94 50.1617 32.0776 50.2097 30.78H54V23.22ZM2.16 25.38H3.78V28.62H2.16V25.38ZM8.1 30.51C8.1 30.659 7.97904 30.78 7.83 30.78H6.21C6.06096 30.78 5.94 30.659 5.94 30.51V23.49C5.94 23.341 6.06096 23.22 6.21 23.22H7.83C7.97904 23.22 8.1 23.341 8.1 23.49V30.51ZM14.58 37.1704C14.58 37.3167 14.4553 37.26 14.3089 37.26H10.5289C10.3826 37.26 10.26 37.3167 10.26 37.1704V30.7238V23.7038V17.1904C10.26 17.044 10.3826 16.74 10.5289 16.74H14.3089C14.4553 16.74 14.58 17.044 14.58 17.1904V37.1704ZM16.74 28.62V25.38H37.26V28.62H16.74ZM43.74 37.1704C43.74 37.3167 43.6153 37.26 43.4689 37.26H39.6889C39.5426 37.26 39.42 37.3167 39.42 37.1704V17.1904C39.42 17.044 39.5426 16.74 39.6889 16.74H43.4689C43.6153 16.74 43.74 17.044 43.74 17.1904V23.6704V30.6904V37.1704ZM48.06 30.51C48.06 30.659 47.939 30.78 47.79 30.78H46.17C46.021 30.78 45.9 30.659 45.9 30.51V23.49C45.9 23.341 46.021 23.22 46.17 23.22H47.79C47.939 23.22 48.06 23.341 48.06 23.49V30.51ZM51.84 28.62H50.22V25.38H51.84V28.62Z" fill="#231F20"/>
</svg>
