<svg width="406" height="991" viewBox="0 0 406 991" fill="none" xmlns="http://www.w3.org/2000/svg">
<path d="M202.788 991C314.784 991 405.575 979.543 405.575 965.411C405.575 951.278 314.784 939.821 202.788 939.821C90.7911 939.821 0 951.278 0 965.411C0 979.543 90.7911 991 202.788 991Z" fill="#A5A5A5"/>
<path d="M163.781 908.694C160.032 923.423 145.32 941.275 126.116 960.405C126.93 964.451 128.521 967.858 132.022 969.739C133.684 970.627 135.559 970.946 137.398 970.911C151.509 970.556 162.119 968.746 170.571 971.194C172.41 971.727 174.391 971.869 176.194 971.265C178.882 970.378 184.576 969.81 186.061 967.29C186.627 966.297 186.981 965.196 187.264 964.096C188.572 959.056 195.08 952.207 201.445 945.392C205.937 931.551 197.626 933.432 197.414 907.984L163.781 908.694Z" fill="#FFE1CC"/>
<path opacity="0.24" d="M201.445 945.392C195.079 952.207 188.572 959.057 187.263 964.096C186.98 965.197 186.626 966.297 186.061 967.291C184.575 969.811 178.881 970.343 176.194 971.266C174.354 971.869 172.409 971.727 170.57 971.195C162.118 968.746 151.508 970.591 137.362 970.911C135.523 970.946 133.649 970.591 131.986 969.74C128.521 967.859 126.964 964.522 126.116 960.583C126.717 959.909 126.964 959.625 127.566 958.915C127.919 958.95 128.273 958.95 128.627 958.95C140.191 958.737 148.856 957.069 155.929 958.24C156.742 958.382 157.556 958.595 158.369 958.844C181.003 965.161 176.264 948.622 182.206 943.618C183.974 942.163 185.212 940.033 185.353 937.726C185.565 934.355 186.733 931.16 185.459 926.191C184.08 920.761 179.023 917.106 173.435 917.212L160.456 917.425C161.906 914.408 163.002 911.533 163.709 908.765L197.342 908.02C197.661 933.432 205.971 931.586 201.445 945.392Z" fill="#FA8072"/>
<path d="M82.3315 96.0766C109.952 171.958 50.7499 157.797 64.0474 212.56C79.6083 261.113 208.411 260.758 263.51 207.556C293.43 175.294 232.565 141.541 243.246 57.6391C152.709 -21.0815 112.923 26.158 82.3315 96.0766Z" fill="#FA8072"/>
<path opacity="0.2" d="M263.511 207.556C208.411 260.758 79.609 261.148 64.048 212.56C63.5529 210.573 62.7395 207.166 62.3151 202.978C61.2541 192.507 73.7029 186.296 81.448 193.395C101.713 211.957 128.661 215.435 157.484 184.806C186.166 153.892 170.817 94.9053 175.769 18.2787C194.618 22.3602 216.757 34.6049 243.246 57.6035C232.566 141.506 293.43 175.294 263.511 207.556Z" fill="#1F1F2B"/>
<path d="M139.129 162.233C143.267 166.208 148.147 173.874 148.183 182.321C148.218 191.762 141.251 199.712 131.985 201.31C125.69 202.374 118.511 203.191 112.499 204.61L134.249 259.8L201.833 260.403L226.129 200.884C217.712 201.558 204.379 200.209 197.766 191.336C193.805 181.15 195.219 171.035 201.621 160.991L139.129 162.233Z" fill="#E8BAA3"/>
<path opacity="0.24" d="M226.094 200.848L201.798 260.367L134.214 259.8L133.188 257.173L140.65 257.244C161.516 257.422 180.366 244.822 188.288 225.479C189.561 222.391 190.162 219.233 190.162 216.074C190.162 207.165 185.317 198.612 177.183 193.821C177.077 193.785 177.006 193.714 176.9 193.643C172.833 191.159 170.216 186.935 169.402 182.25C168.2 175.329 169.438 168.444 173.01 161.594L201.585 161.026C195.219 171.07 193.805 181.185 197.73 191.372C204.344 200.209 217.712 201.522 226.094 200.848Z" fill="#FA8072"/>
<path d="M166.568 182.387C198.867 181.784 224.395 145.931 223.586 102.307C222.778 58.6824 195.938 23.8068 163.639 24.4099C131.34 25.0129 105.811 60.8662 106.62 104.49C107.429 148.115 134.268 182.99 166.568 182.387Z" fill="#FFD1BD"/>
<path d="M151.613 180.086C152.674 180.441 153.771 180.76 154.832 181.044C153.735 180.76 152.674 180.441 151.613 180.086Z" fill="#FFD1BD"/>
<path opacity="0.24" d="M223.584 107.221C223.548 108.641 223.477 110.096 223.371 111.516C223.336 112.19 223.265 112.829 223.23 113.503C223.23 113.574 223.23 113.645 223.195 113.716C223.124 114.391 223.053 115.1 222.982 115.775C222.912 116.414 222.841 117.088 222.77 117.727C222.487 119.856 222.169 121.95 221.78 124.009C221.32 126.422 220.754 128.8 220.153 131.107C220.012 131.639 219.87 132.207 219.693 132.74C219.516 133.343 219.375 133.911 219.163 134.479C219.163 134.514 219.163 134.55 219.127 134.585C218.951 135.153 218.774 135.686 218.597 136.218C218.42 136.786 218.208 137.354 218.031 137.921C217.854 138.418 217.677 138.951 217.465 139.448C217.359 139.732 217.253 140.015 217.147 140.299C216.97 140.761 216.793 141.222 216.616 141.684C216.227 142.642 215.838 143.6 215.414 144.523C215.166 145.055 214.954 145.588 214.707 146.12C214.459 146.652 214.212 147.185 213.964 147.682C212.938 149.74 211.842 151.763 210.71 153.68C210.427 154.177 210.109 154.638 209.826 155.099C209.543 155.561 209.26 155.987 208.977 156.413C207.74 158.294 206.431 160.068 205.052 161.772C204.734 162.162 204.415 162.588 204.062 162.979C202.612 164.718 201.055 166.35 199.464 167.912C199.216 168.16 198.934 168.409 198.686 168.657C197.201 170.041 195.68 171.319 194.088 172.526C193.77 172.774 193.416 173.023 193.063 173.271C192.745 173.52 192.426 173.733 192.108 173.946C191.86 174.123 191.613 174.3 191.33 174.442C190.941 174.726 190.516 174.975 190.127 175.223C188.996 175.933 187.829 176.607 186.626 177.211C186.273 177.388 185.884 177.566 185.53 177.743C185.176 177.921 184.823 178.098 184.469 178.24C184.434 178.276 184.363 178.276 184.327 178.311C183.974 178.489 183.62 178.63 183.302 178.772C181.498 179.553 179.695 180.192 177.82 180.724C177.466 180.831 177.077 180.937 176.688 181.008C176.299 181.115 175.91 181.221 175.557 181.292C174.142 181.612 172.692 181.86 171.277 182.073C170.959 182.109 170.606 182.144 170.252 182.18C169.898 182.215 169.545 182.251 169.191 182.286C169.12 182.286 169.085 182.286 169.014 182.286C168.165 182.357 167.352 182.393 166.538 182.393C166.255 182.393 165.973 182.393 165.69 182.393C165.124 182.393 164.558 182.393 164.027 182.357C163.921 182.357 163.815 182.357 163.745 182.357C163.249 182.322 162.754 182.322 162.224 182.251C162.047 182.251 161.87 182.215 161.693 182.215C161.375 182.18 161.021 182.144 160.703 182.109C160.456 182.073 160.208 182.038 159.925 182.002C159.324 181.931 158.723 181.825 158.157 181.718C157.697 181.647 157.202 181.541 156.742 181.434C156.671 181.434 156.636 181.399 156.565 181.399C156.07 181.292 155.575 181.186 155.08 181.044C154.974 181.008 154.868 181.008 154.797 180.973C153.701 180.689 152.64 180.37 151.579 180.015C151.402 179.944 151.26 179.908 151.084 179.837C150.659 179.695 150.235 179.518 149.775 179.376C149.245 179.163 148.714 178.95 148.184 178.737C147.582 178.489 146.981 178.205 146.38 177.921C145.849 177.672 145.319 177.424 144.788 177.14C144.753 177.14 144.753 177.14 144.718 177.104C144.223 176.856 143.727 176.572 143.232 176.288C143.197 176.253 143.126 176.217 143.091 176.217C142.631 175.933 142.136 175.649 141.676 175.401C141.641 175.365 141.606 175.365 141.57 175.33C141.04 175.01 140.509 174.691 140.014 174.336C139.59 174.052 139.165 173.768 138.706 173.484C138.599 173.413 138.493 173.307 138.387 173.236C137.927 172.916 137.432 172.561 136.973 172.206C136.937 172.171 136.866 172.135 136.796 172.1C136.336 171.745 135.912 171.39 135.452 171.035C134.957 170.645 134.462 170.219 134.002 169.829C133.507 169.403 133.047 168.977 132.552 168.551C131.809 167.876 131.102 167.202 130.43 166.492C128.838 164.86 127.282 163.156 125.832 161.311C125.443 160.814 125.019 160.317 124.63 159.784C122.932 157.584 143.162 171.035 159.005 170.716C171.596 170.467 183.125 164.895 192.497 155.596C205.794 142.429 209.508 122.696 203.885 104.808C200.207 93.06 204.663 80.8508 197.519 66.5832C193.593 58.704 182.382 58.5266 178.245 66.2283C150.518 133.237 117.486 130.149 117.486 130.149C112.535 129.723 109.953 129.013 109.104 125.251C108.397 121.986 107.796 118.65 107.407 115.278C111.297 115.313 115.293 114.674 119.219 113.361C166.114 97.7449 171.277 65.5184 179.907 49.4762C184.08 41.739 195.255 41.952 199.181 49.7956C209.26 69.9549 196.21 85.9972 215.591 102.323C216.864 103.424 218.314 104.524 219.905 105.589C221.037 106.44 222.31 106.973 223.584 107.221Z" fill="#FA8072"/>
<path opacity="0.32" d="M223.584 107.22C222.311 106.936 221.037 106.44 219.906 105.659C218.314 104.558 216.864 103.458 215.591 102.394C215.945 98.5604 216.086 94.6208 216.015 90.6458C215.697 74.0002 211.595 58.5968 204.84 45.9617C216.051 60.1229 223.23 80.0692 223.619 102.323C223.654 103.955 223.654 105.588 223.584 107.22Z" fill="#FA8072"/>
<path d="M86.3997 462.102C29.4608 564.709 85.6217 605.169 116.213 697.732C118.972 706.108 120.316 714.91 120.316 723.747C120.245 803.284 150.907 841.722 159.89 902.057C163.709 915.757 178.881 914.054 195.609 910.256C199.252 909.44 201.763 906.068 201.586 902.306C198.863 844.171 218.562 808.111 206.396 754.731C203.355 737.837 199.429 720.234 194.867 702.062C193.417 696.348 193.381 690.385 194.654 684.671C207.209 628.665 183.055 586.998 188.041 543.52C188.112 542.775 189.067 542.385 190.375 542.207C196.776 541.355 202.258 537.132 204.274 530.956L228.004 491.773L275.642 470.656L257.358 436.726L86.3997 462.102Z" fill="#5F7A61"/>
<path opacity="0.2" d="M188.077 543.449C183.091 586.927 207.246 628.594 194.691 684.6C193.382 690.349 193.453 696.312 194.903 701.991C199.465 720.162 203.426 737.766 206.432 754.66C218.598 808.04 198.899 844.064 201.622 902.235C201.799 905.997 199.288 909.369 195.646 910.185C178.918 913.983 163.746 915.686 159.926 902.022C159.183 896.947 158.264 892.049 157.238 887.293C173.047 889.529 187.476 877.959 188.891 861.987C191.755 828.909 194.974 771.306 186.663 734.927C183.621 718.033 180.792 717.643 176.23 699.471C174.815 693.757 177.927 664.937 179.2 659.223C185.46 631.291 180.155 606.412 172.799 582.739C162.508 549.554 168.697 513.352 189.952 485.917C204.735 466.787 224.433 448.048 248.164 440.523L255.697 436.903L257.43 436.655L275.714 470.585L228.076 491.702L204.346 530.885C202.33 537.061 196.883 541.284 190.447 542.136C189.103 542.314 188.183 542.704 188.077 543.449Z" fill="black"/>
<path d="M93.6135 209.508C99.1306 205.214 107.76 200.032 114.479 198.328C118.193 197.37 121.694 200.493 121.305 204.326C114.692 268.992 206.501 279.924 222.805 199.783C224.007 193.892 230.656 190.875 235.855 193.821C240.877 196.66 246.182 200.884 249.93 204.255C252.3 206.385 253.608 209.437 253.573 212.596C252.937 259.161 251.062 290.181 267.684 321.13C265.951 332.274 260.08 342.389 253.644 348.707C247.172 401.767 266.517 395.84 273.59 417.454C275.465 423.133 273.555 429.379 268.851 433.035C202.469 484.817 160.066 508.881 82.2257 459.476C75.2233 455.04 72.4648 446.096 75.7538 438.501C84.1001 419.3 93.6842 420.4 99.7318 353.959C89.1221 346.897 84.4538 337.065 84.6306 321.91C94.3208 298.983 94.0733 261.61 90.3952 216.784C90.2184 214.016 91.3855 211.247 93.6135 209.508Z" fill="#3A6351"/>
<path d="M169.332 280.029L174.637 342.814V357.366C174.637 361.27 172.162 364.713 168.484 365.99L94.9937 390.87C96.2668 384.091 97.4692 375.893 98.6009 365.919L153.453 347.357C155.08 348.351 156.565 349.664 158.015 351.119C157.379 350.09 156.035 349.167 154.019 347.144L162.719 344.198C166.397 342.956 168.873 339.478 168.873 335.574V280.81C169.014 280.526 169.156 280.278 169.332 280.029Z" fill="#3A6351"/>
<path d="M253.716 382.636L181.287 364.855C177.644 363.967 175.062 360.667 175.062 356.905V342.921C175.204 342.956 175.345 343.027 175.522 343.063L194.514 347.712C193.134 348.99 192.18 349.7 191.684 350.516C192.745 349.451 193.877 348.564 195.08 347.854L252.478 361.944C252.089 370.746 252.584 377.383 253.716 382.636Z" fill="#3A6351"/>
<path d="M182.558 114.177C185.352 113.538 187.757 113.361 190.056 113.112C192.354 112.899 194.476 112.687 196.563 112.403C198.649 112.119 200.701 111.799 202.893 111.409C205.121 111.018 207.42 110.451 210.214 110.025C208.269 115.384 202.929 118.756 197.447 119.43C194.689 119.785 191.895 119.465 189.313 118.614C186.767 117.691 184.432 116.342 182.558 114.177Z" fill="black"/>
<path d="M120.846 112.083C125.832 114.532 129.05 115.419 132.976 115.916C134.921 116.165 136.972 116.342 139.2 116.555C141.428 116.803 143.798 117.016 146.521 117.762C144.682 119.856 142.419 121.169 139.978 122.092C137.503 122.944 134.815 123.334 132.021 122.944C129.263 122.589 126.469 121.382 124.382 119.43C122.26 117.478 120.881 114.887 120.846 112.083Z" fill="black"/>
<path d="M179.87 49.5117C171.205 65.554 166.077 97.7805 119.182 113.397C97.0432 120.779 73.6311 105.802 71.1201 82.519C65.8152 33.2565 129.827 -2.55457 176.192 0.1428C208.657 1.81091 245.721 30.6657 244.094 70.7713C242.432 84.3291 239.143 94.5862 234.722 102.323C231.716 107.541 224.855 109.031 219.904 105.66C194.37 88.1622 209.931 71.3391 199.179 49.8312C195.218 41.9875 184.043 41.7746 179.87 49.5117Z" fill="#FA8072"/>
<path opacity="0.2" d="M240.205 89.5821C238.685 94.4444 236.846 98.668 234.724 102.359C231.718 107.576 224.857 109.067 219.905 105.695C194.088 87.9849 210.038 71.3748 199.641 50.4347C197.731 46.6016 193.911 43.9752 189.668 43.7623C179.801 43.2654 177.042 55.6875 174.425 61.5791C167.175 78.4732 156.141 101.081 119.184 113.397C97.0799 120.779 73.6324 105.802 71.1568 82.5547C70.8031 79.2895 70.7677 76.1307 70.9799 72.9719C76.0372 91.0727 98.7421 102.111 120.245 96.0771C177.183 80.0703 170.747 50.2927 184.151 40.2131C187.97 37.3028 195.008 38.3675 198.686 41.4553C212.408 54.8002 207.563 87.3106 223.654 95.2607C232.496 100.123 237.624 90.9662 240.771 86.3878C240.983 85.9974 240.63 88.1979 240.205 89.5821Z" fill="#1F1F2B"/>
<path opacity="0.2" d="M268.886 433.07C202.504 484.853 160.101 508.916 82.2958 459.512C79.4312 457.702 77.2739 455.146 75.9653 452.236C140.649 484.498 181.037 460.328 241.018 413.515C245.721 409.859 247.596 403.612 245.721 397.934C244.731 394.952 243.529 392.539 242.22 390.374C237.163 382.211 228.958 376.568 219.657 374.261L181.285 364.855C177.642 363.968 175.06 360.667 175.06 356.905V342.922C175.202 342.957 175.343 343.028 175.52 343.064L194.512 347.713C193.132 348.991 192.177 349.7 191.682 350.517C192.743 349.452 193.875 348.565 195.077 347.855L224.714 355.131C224.183 348.458 224.431 340.047 225.775 329.186C226.129 328.831 226.482 328.476 226.836 328.086C236.703 317.651 244.943 300.473 239.815 287.022C230.09 261.575 243.599 254.015 244.165 217.387C244.2 214.016 244.2 209.189 241.866 203.51C239.886 198.719 241.654 197.37 245.686 200.635C247.242 201.877 248.692 203.12 249.965 204.255C252.335 206.385 253.643 209.437 253.608 212.596C252.971 259.161 251.097 290.145 267.719 321.13C265.986 332.274 260.115 342.389 253.679 348.707C253.077 353.569 252.724 357.97 252.511 361.91C252.476 362.832 252.441 363.755 252.405 364.607C252.405 364.962 252.37 365.317 252.37 365.672C252.335 367.908 252.335 370.002 252.441 371.989C252.441 372.238 252.476 372.451 252.476 372.699C252.547 374.154 252.653 375.574 252.794 376.887C252.83 377.171 252.865 377.455 252.9 377.703C253.007 378.591 253.148 379.442 253.254 380.223C253.29 380.507 253.325 380.756 253.396 381.04C253.502 381.572 253.608 382.069 253.714 382.601C257.569 400.667 268.603 402.228 273.589 417.454C275.464 423.168 273.589 429.415 268.886 433.07Z" fill="black"/>
<path opacity="0.2" d="M168.484 365.955L94.9937 390.835C96.2668 384.056 97.4692 375.857 98.6009 365.884L153.453 347.322C155.08 348.315 156.565 349.629 158.015 351.084C157.379 350.055 156.035 349.132 154.019 347.109L162.719 344.163C166.397 342.921 168.873 339.443 168.873 335.538V280.81C169.014 280.562 169.156 280.313 169.332 280.029L174.637 342.814V357.366C174.637 361.234 172.162 364.713 168.484 365.955Z" fill="black"/>
<path d="M200.454 542.668C206.077 546.111 212.195 551.861 218.561 558.746C232.849 574.221 251.522 585.01 272.105 589.304L365.188 608.754C372.509 610.28 380.042 606.944 383.72 600.378C386.513 595.374 389.06 590.085 389.909 587.814C393.587 577.663 391.571 566.306 385.063 557.681C316.454 466.645 296.755 487.159 276.561 471.188C275.995 470.727 275.323 470.372 274.616 470.194C259.692 466.361 248.375 467.994 238.543 471.898C226.412 476.689 216.121 485.207 208.623 495.89C201.338 506.254 196.245 517.15 194.159 528.827C193.204 534.328 195.75 539.794 200.454 542.668Z" fill="#405141"/>
<path opacity="0.14" d="M389.91 587.85C389.096 590.121 386.55 595.409 383.721 600.414C380.043 606.944 372.51 610.316 365.154 608.79L272.071 589.305C251.488 585.01 232.815 574.221 218.527 558.746C212.161 551.861 206.043 546.111 200.455 542.669C195.751 539.758 193.205 534.328 194.195 528.862C195.681 520.486 198.757 512.501 203.037 504.835C212.904 509.697 224.256 513.743 236.564 516.724L323.033 537.629C329.859 539.261 337.144 538.765 341.034 536.316C344.005 534.435 346.728 532.412 347.612 531.524C351.715 527.478 350.512 522.119 344.924 517.399C295.023 475.341 273.132 473.566 256.687 468.101C262.098 467.923 268.004 468.527 274.653 470.23C275.36 470.408 276.032 470.763 276.598 471.224C296.792 487.195 316.455 466.681 385.1 557.717C391.572 566.342 393.552 577.699 389.91 587.85Z" fill="black"/>
<path d="M180.33 566.2C174.813 568.081 168.235 567.584 160.632 564.745C151.896 561.48 141.888 565.952 139.907 574.505C138.988 578.516 139.271 583.165 140.155 588.063C141.145 593.564 142.843 598.959 144.965 604.176C150.482 617.663 156.176 631.079 153.841 645.702C153.205 663.518 149.032 684.778 171.1 689.072C174.071 686.73 170.463 679.49 172.161 668.487C170.817 652.09 178.704 655.781 179.694 620.183C182.382 612.943 185.989 612.623 189.914 610.742L180.33 566.2Z" fill="#F5C6AA"/>
<path opacity="0.28" d="M189.845 610.67C189.845 610.706 189.845 610.777 189.774 610.777C187.829 611.7 185.955 612.267 184.257 613.439C182.524 614.681 180.933 616.562 179.624 620.147V620.182C178.705 652.976 171.95 652.408 171.95 664.937C171.95 666.002 172.021 667.173 172.127 668.451C172.127 668.451 172.127 668.451 172.127 668.486C170.96 676.01 172.303 681.76 172.303 685.416C172.303 687.084 172.021 688.29 171.136 689.036C171.101 689.071 171.066 689.071 171.03 689.071C165.549 688.007 161.694 685.877 159.006 683.002C150.023 673.987 155.116 655.993 158.652 646.659C159.961 643.181 160.916 639.596 161.517 635.905C162.79 627.919 167.069 624.157 167.953 598.461C168.024 596.083 168.696 593.741 169.969 591.718C170.677 590.653 171.419 589.872 172.162 589.269C175.097 586.962 176.512 583.164 175.805 579.473L174.072 570.529C173.753 568.861 174.885 567.299 176.547 567.051C177.82 566.874 179.023 566.59 180.225 566.199C180.296 566.164 180.331 566.199 180.331 566.27L189.845 610.67Z" fill="#FA8072"/>
<path d="M167.211 717.82C161.411 725.486 145.214 731.342 139.308 719.239" stroke="black" stroke-width="2" stroke-miterlimit="10"/>
<path d="M184.293 562.686L290.107 546.182C339.902 541.32 361.44 563.04 377.107 582.1C384.145 590.653 383.614 603.182 375.904 611.167C354.225 633.492 344.924 628.416 302.167 620.076C274.016 614.042 220.083 610.422 195.185 614.894C192.568 615.355 189.81 614.326 188.324 612.09C188.183 611.913 188.077 611.7 187.971 611.487C181.817 599.739 176.901 584.016 177.149 570.92C177.219 566.767 180.261 563.324 184.293 562.686Z" fill="#405141"/>
<path opacity="0.2" d="M375.904 611.133C354.224 633.457 344.923 628.381 302.166 620.041C274.015 614.007 220.082 610.387 195.184 614.824C192.567 615.285 189.809 614.256 188.323 612.02C188.182 611.807 188.076 611.629 187.97 611.416C181.816 599.669 176.9 583.946 177.183 570.85C177.218 568.827 177.996 566.946 179.234 565.49C179.906 564.71 181.179 564.993 181.498 565.987C182.099 567.762 182.983 570.069 184.044 572.624C189.384 585.437 202.576 593.138 216.333 591.364C238.048 588.595 269.877 585.295 284.589 587.673C320.308 592.961 328.054 596.155 346.196 582.029C352.668 576.99 353.093 569.075 347.222 563.68C343.013 559.812 338.274 555.73 332.404 552.146C331.024 551.294 332.015 549.2 333.535 549.697C354.507 556.369 367.027 569.749 377.106 582.029C384.144 590.654 383.613 603.182 375.904 611.133Z" fill="black"/>
<path d="M253.468 210.857C308.957 239.037 309.275 284.751 334.349 337.669C338.77 346.967 336.507 358.289 328.408 364.607C318.541 372.309 306.729 373.728 293.997 372.096L175.557 343.028C171.914 342.141 169.333 338.84 169.333 335.078V252.666C169.333 251.53 170.818 251.104 171.419 252.098C179.235 265.266 183.62 274.174 189.951 285.886C191.79 289.293 192.922 293.056 193.169 296.924C193.735 306.01 196.458 316.516 193.7 320.349C189.597 325.85 191.754 324.395 195.362 323.685C243.778 318.042 268.604 310.411 283.246 318.042C285.58 318.965 291.486 322.549 299.16 327.163C293.502 321.059 288.02 319.071 285.934 317.616C281.442 315.096 273.803 313.357 266.376 313.108C263.052 313.002 260.117 310.766 259.126 307.572C249.047 275.097 249.79 240.35 253.468 210.857Z" fill="#FFE1CC"/>
<path opacity="0.24" d="M328.407 364.642C318.54 372.344 306.728 373.764 293.996 372.131L175.556 343.063C171.913 342.176 169.332 338.875 169.332 335.113V324.43C173.469 339.798 225.775 341.963 264.642 347.819C277.374 349.452 289.186 348.032 299.053 340.33C307.152 333.977 309.416 322.691 304.995 313.357C286.958 275.203 281.724 240.812 259.444 214.051C308.991 242.444 310.194 286.667 334.348 337.669C338.769 347.003 336.506 358.289 328.407 364.642Z" fill="#FA8072"/>
<path d="M91.6688 212.56C36.1798 240.74 28.8945 285.283 3.82015 338.236C-0.60057 347.535 4.386 357.26 12.4848 363.613C16.7287 366.913 22.3164 370.995 28.3286 374.438C39.0445 380.542 51.8823 381.713 63.553 377.774L162.648 344.199C166.326 342.957 168.802 339.478 168.802 335.574V252.985C168.802 251.92 167.422 251.565 166.892 252.453C159.394 265.088 155.009 273.783 149.138 284.75C146.769 289.151 145.283 294.013 144.859 298.982C144.116 307.713 141.817 317.332 144.435 320.952C148.537 326.453 146.804 324.465 143.232 323.756C84.7725 327.092 63.0932 316.941 48.4164 320.632C46.0823 321.555 40.1054 329.15 32.4311 333.764C38.0896 327.66 44.4908 321.91 46.5774 320.455C51.1749 317.899 69.5651 320.419 80.9175 321.839C84.5956 322.3 87.1066 316.196 88.1322 312.647C97.8224 279.391 95.3468 241.947 91.6688 212.56Z" fill="#FFD1BD"/>
<path opacity="0.24" d="M80.174 288.407C85.974 264.734 86.0801 239.357 84.3472 216.501C86.6813 215.152 89.1216 213.839 91.6679 212.526C95.063 239.89 97.4679 274.21 89.9704 305.656C81.624 340.367 71.863 310.838 77.274 296.996C78.3703 294.192 79.4667 291.353 80.174 288.407Z" fill="#FA8072"/>
<path opacity="0.24" d="M168.871 252.95V335.539C168.871 339.443 166.396 342.886 162.718 344.164L63.6227 377.739C51.9166 381.678 39.0788 380.543 28.3983 374.403C22.3861 370.96 16.763 366.914 12.5545 363.578C6.36543 358.751 2.01542 351.936 2.26298 344.838C2.51054 345.051 2.75807 345.228 3.00563 345.441C7.24953 348.742 12.8374 352.824 18.8496 356.266C29.5654 362.371 42.4032 363.542 54.0739 359.602C54.0739 359.602 149.456 338.875 150.906 337.953C159.11 332.948 160.384 324.856 159.323 317.438V280.208C159.323 270.483 161.904 260.936 166.891 252.56C166.926 252.524 166.962 252.453 166.962 252.418C167.492 251.53 168.871 251.921 168.871 252.95Z" fill="#FA8072"/>
</svg>
