<svg width="340" height="830" viewBox="0 0 340 830" fill="none" xmlns="http://www.w3.org/2000/svg">
<path d="M169.842 830C263.644 830 339.685 820.405 339.685 808.568C339.685 796.731 263.644 787.136 169.842 787.136C76.041 787.136 0 796.731 0 808.568C0 820.405 76.041 830 169.842 830Z" fill="#A5A5A5"/>
<path d="M137.172 761.066C134.033 773.402 121.711 788.354 105.627 804.376C106.308 807.764 107.641 810.618 110.574 812.193C111.966 812.937 113.536 813.204 115.076 813.174C126.894 812.877 135.78 811.361 142.86 813.412C144.4 813.858 146.059 813.977 147.569 813.472C149.82 812.728 154.589 812.253 155.833 810.142C156.307 809.31 156.603 808.389 156.84 807.467C157.936 803.246 163.386 797.509 168.718 791.802C172.48 780.209 165.519 781.784 165.341 760.471L137.172 761.066Z" fill="#FFE1CC"/>
<path opacity="0.24" d="M168.717 791.802C163.386 797.509 157.936 803.246 156.84 807.467C156.603 808.389 156.306 809.31 155.833 810.143C154.589 812.253 149.82 812.699 147.569 813.472C146.028 813.977 144.399 813.858 142.859 813.412C135.78 811.361 126.894 812.907 115.046 813.175C113.505 813.204 111.936 812.907 110.543 812.194C107.641 810.618 106.337 807.824 105.626 804.524C106.13 803.96 106.337 803.722 106.841 803.127C107.137 803.157 107.433 803.157 107.729 803.157C117.415 802.979 124.672 801.582 130.596 802.563C131.277 802.681 131.959 802.86 132.64 803.068C151.597 808.359 147.628 794.507 152.604 790.316C154.085 789.097 155.122 787.313 155.24 785.381C155.418 782.557 156.395 779.882 155.329 775.72C154.174 771.172 149.938 768.111 145.258 768.2L134.388 768.378C135.602 765.851 136.52 763.444 137.113 761.125L165.281 760.501C165.548 781.784 172.509 780.239 168.717 791.802Z" fill="#FA8072"/>
<path d="M68.9556 80.4678C92.089 144.021 42.5048 132.161 53.642 178.027C66.6748 218.692 174.552 218.395 220.7 173.836C245.758 146.815 194.782 118.546 203.727 48.2749C127.9 -17.6565 94.577 21.9083 68.9556 80.4678Z" fill="#FA8072"/>
<path opacity="0.2" d="M220.701 173.836C174.552 218.395 66.6758 218.722 53.6429 178.027C53.2282 176.363 52.5469 173.509 52.1915 170.001C51.3029 161.232 61.7292 156.03 68.216 161.975C85.1884 177.522 107.759 180.435 131.899 154.782C155.921 128.891 143.066 79.4868 147.213 15.3091C163.001 18.7275 181.543 28.9829 203.728 48.2451C194.783 118.517 245.759 146.815 220.701 173.836Z" fill="#1F1F2B"/>
<path d="M116.526 135.876C119.991 139.206 124.079 145.626 124.109 152.701C124.138 160.608 118.303 167.267 110.542 168.604C105.27 169.496 99.2571 170.18 94.2217 171.369L112.438 217.592L169.043 218.098L189.392 168.248C182.342 168.812 171.175 167.683 165.636 160.251C162.319 151.72 163.504 143.248 168.865 134.836L116.526 135.876Z" fill="#E8BAA3"/>
<path opacity="0.24" d="M189.362 168.218L169.013 218.068L112.409 217.592L111.55 215.392L117.8 215.452C135.276 215.6 151.063 205.048 157.698 188.847C158.764 186.261 159.268 183.616 159.268 180.97C159.268 173.509 155.21 166.345 148.397 162.332C148.308 162.302 148.249 162.243 148.16 162.183C144.754 160.103 142.562 156.565 141.881 152.641C140.874 146.845 141.91 141.078 144.902 135.341L168.835 134.866C163.504 143.278 162.319 151.75 165.607 160.281C171.146 167.683 182.342 168.782 189.362 168.218Z" fill="#FA8072"/>
<path d="M139.506 152.756C166.558 152.251 187.939 122.223 187.262 85.6858C186.585 49.1488 164.106 19.9391 137.054 20.4442C110.002 20.9492 88.6208 50.9778 89.2982 87.5147C89.9755 124.052 112.455 153.261 139.506 152.756Z" fill="#FFD1BD"/>
<path d="M126.982 150.829C127.871 151.126 128.789 151.393 129.677 151.631C128.759 151.393 127.871 151.126 126.982 150.829Z" fill="#FFD1BD"/>
<path opacity="0.24" d="M187.259 89.8018C187.23 90.9908 187.171 92.2096 187.082 93.3986C187.052 93.9634 186.993 94.4984 186.963 95.0632C186.963 95.1227 186.963 95.1821 186.934 95.2416C186.874 95.8064 186.815 96.4009 186.756 96.9657C186.697 97.5007 186.637 98.0655 186.578 98.6006C186.341 100.384 186.075 102.138 185.749 103.862C185.364 105.883 184.89 107.875 184.386 109.807C184.268 110.253 184.149 110.729 184.001 111.175C183.853 111.68 183.735 112.155 183.557 112.631C183.557 112.661 183.557 112.691 183.527 112.72C183.379 113.196 183.231 113.642 183.083 114.088C182.935 114.563 182.757 115.039 182.609 115.514C182.461 115.931 182.313 116.377 182.135 116.793C182.046 117.03 181.957 117.268 181.869 117.506C181.72 117.893 181.572 118.279 181.424 118.665C181.098 119.468 180.773 120.271 180.417 121.043C180.21 121.489 180.032 121.935 179.825 122.381C179.617 122.827 179.41 123.273 179.203 123.689C178.344 125.413 177.426 127.107 176.478 128.713C176.241 129.129 175.974 129.515 175.737 129.902C175.5 130.288 175.263 130.645 175.026 131.002C173.99 132.577 172.894 134.063 171.738 135.49C171.472 135.817 171.205 136.174 170.909 136.501C169.695 137.957 168.391 139.325 167.058 140.633C166.851 140.841 166.614 141.049 166.407 141.257C165.163 142.416 163.889 143.486 162.556 144.497C162.29 144.705 161.993 144.913 161.697 145.121C161.431 145.329 161.164 145.508 160.897 145.686C160.69 145.835 160.483 145.983 160.246 146.102C159.92 146.34 159.565 146.548 159.239 146.756C158.291 147.351 157.313 147.915 156.306 148.421C156.01 148.569 155.684 148.718 155.388 148.867C155.092 149.015 154.796 149.164 154.5 149.283C154.47 149.313 154.411 149.313 154.381 149.342C154.085 149.491 153.789 149.61 153.522 149.729C152.011 150.383 150.501 150.918 148.931 151.364C148.635 151.453 148.309 151.542 147.983 151.601C147.657 151.691 147.331 151.78 147.035 151.839C145.85 152.107 144.636 152.315 143.451 152.493C143.185 152.523 142.888 152.553 142.592 152.582C142.296 152.612 142 152.642 141.704 152.672C141.644 152.672 141.615 152.672 141.555 152.672C140.845 152.731 140.163 152.761 139.482 152.761C139.245 152.761 139.008 152.761 138.771 152.761C138.297 152.761 137.823 152.761 137.379 152.731C137.29 152.731 137.201 152.731 137.142 152.731C136.727 152.701 136.313 152.701 135.868 152.642C135.72 152.642 135.572 152.612 135.424 152.612C135.158 152.582 134.861 152.553 134.595 152.523C134.387 152.493 134.18 152.463 133.943 152.434C133.44 152.374 132.936 152.285 132.462 152.196C132.077 152.136 131.662 152.047 131.277 151.958C131.218 151.958 131.188 151.928 131.129 151.928C130.714 151.839 130.3 151.75 129.885 151.631C129.796 151.601 129.707 151.601 129.648 151.572C128.73 151.334 127.841 151.066 126.953 150.769C126.805 150.71 126.686 150.68 126.538 150.62C126.183 150.502 125.827 150.353 125.442 150.234C124.998 150.056 124.553 149.877 124.109 149.699C123.606 149.491 123.102 149.253 122.599 149.015C122.154 148.807 121.71 148.599 121.266 148.361C121.236 148.361 121.236 148.361 121.206 148.332C120.792 148.124 120.377 147.886 119.962 147.648C119.933 147.618 119.873 147.588 119.844 147.588C119.459 147.351 119.044 147.113 118.659 146.905C118.629 146.875 118.6 146.875 118.57 146.845C118.126 146.578 117.682 146.31 117.267 146.013C116.911 145.775 116.556 145.537 116.171 145.3C116.082 145.24 115.993 145.151 115.904 145.091C115.519 144.824 115.105 144.527 114.72 144.229C114.69 144.2 114.631 144.17 114.571 144.14C114.186 143.843 113.831 143.546 113.446 143.248C113.031 142.922 112.617 142.565 112.231 142.238C111.817 141.881 111.432 141.524 111.017 141.168C110.395 140.603 109.803 140.038 109.24 139.444C107.907 138.076 106.604 136.649 105.389 135.104C105.063 134.688 104.708 134.271 104.382 133.825C102.96 131.982 119.903 143.248 133.173 142.981C143.718 142.773 153.374 138.106 161.223 130.318C172.36 119.29 175.471 102.762 170.761 87.7804C167.681 77.9413 171.413 67.7156 165.429 55.7659C162.142 49.1669 152.752 49.0182 149.286 55.4687C126.064 111.591 98.3988 109.005 98.3988 109.005C94.252 108.648 92.0897 108.053 91.3788 104.902C90.7864 102.168 90.2829 99.3734 89.957 96.5495C93.2153 96.5792 96.5623 96.0442 99.8502 94.9443C139.127 81.8651 143.451 54.8742 150.678 41.4382C154.174 34.958 163.534 35.1364 166.822 41.7057C175.263 58.5899 164.333 72.0259 180.565 85.6997C181.632 86.6212 182.846 87.5426 184.179 88.4344C185.127 89.1478 186.193 89.5937 187.259 89.8018Z" fill="#FA8072"/>
<path opacity="0.32" d="M187.26 89.8011C186.193 89.5633 185.127 89.1472 184.179 88.4932C182.846 87.5717 181.632 86.6502 180.566 85.7584C180.862 82.5481 180.98 79.2485 180.921 75.9193C180.654 61.9779 177.218 49.077 171.561 38.4947C180.951 50.3552 186.964 67.061 187.289 85.699C187.319 87.0664 187.319 88.4337 187.26 89.8011Z" fill="#FA8072"/>
<path d="M72.3629 387.028C24.6744 472.965 71.7113 506.852 97.3328 584.377C99.6432 591.392 100.769 598.764 100.769 606.166C100.709 672.781 126.39 704.974 133.914 755.507C137.113 766.981 149.82 765.555 163.83 762.374C166.881 761.69 168.984 758.866 168.836 755.715C166.555 707.025 183.054 676.824 172.864 632.116C170.317 617.967 167.029 603.223 163.208 588.003C161.994 583.217 161.964 578.224 163.03 573.438C173.546 526.531 153.315 491.633 157.491 455.219C157.551 454.595 158.35 454.268 159.446 454.119C164.808 453.406 169.399 449.868 171.087 444.696L190.962 411.879L230.861 394.192L215.547 365.774L72.3629 387.028Z" fill="#5F7A61"/>
<path opacity="0.2" d="M157.522 455.159C153.345 491.573 173.576 526.471 163.061 573.378C161.965 578.194 162.024 583.188 163.238 587.944C167.059 603.163 170.377 617.907 172.895 632.057C183.084 676.764 166.585 706.936 168.866 755.656C169.014 758.807 166.911 761.631 163.86 762.314C149.85 765.495 137.143 766.922 133.944 755.478C133.322 751.227 132.552 747.125 131.693 743.141C144.933 745.014 157.018 735.323 158.203 721.947C160.602 694.243 163.298 645.998 156.337 615.529C153.79 601.38 151.42 601.053 147.599 585.833C146.414 581.047 149.021 556.91 150.087 552.124C155.33 528.73 150.887 507.893 144.726 488.066C136.106 460.272 141.29 429.952 159.092 406.974C171.473 390.952 187.971 375.257 207.846 368.955L214.155 365.923L215.607 365.715L230.92 394.133L191.022 411.819L171.147 444.636C169.459 449.809 164.897 453.346 159.506 454.059C158.381 454.208 157.611 454.535 157.522 455.159Z" fill="black"/>
<path d="M78.4048 175.471C83.0255 171.874 90.2528 167.534 95.8807 166.107C98.9908 165.305 101.923 167.921 101.597 171.131C96.0584 225.291 172.952 234.447 186.607 167.326C187.614 162.392 193.183 159.865 197.537 162.332C201.743 164.71 206.186 168.248 209.326 171.072C211.311 172.855 212.407 175.412 212.377 178.057C211.844 217.057 210.274 243.037 224.195 268.958C222.744 278.292 217.827 286.764 212.436 292.055C207.016 336.495 223.218 331.531 229.142 349.633C230.712 354.39 229.112 359.621 225.173 362.683C169.576 406.053 134.061 426.207 68.867 384.829C63.0022 381.113 60.6919 373.622 63.4465 367.261C70.4369 351.179 78.464 352.101 83.529 296.454C74.643 290.539 70.7331 282.305 70.8812 269.612C78.9971 250.409 78.7898 219.108 75.7093 181.565C75.5612 179.246 76.5387 176.928 78.4048 175.471Z" fill="#3A6351"/>
<path d="M141.822 234.535L146.265 287.12V299.307C146.265 302.577 144.192 305.461 141.111 306.531L79.5605 327.368C80.6269 321.691 81.6339 314.824 82.5818 306.471L128.523 290.925C129.885 291.757 131.129 292.857 132.344 294.076C131.81 293.214 130.685 292.441 128.997 290.746L136.283 288.279C139.364 287.239 141.437 284.326 141.437 281.056V235.189C141.556 234.951 141.674 234.743 141.822 234.535Z" fill="#3A6351"/>
<path d="M212.497 320.472L151.835 305.58C148.784 304.836 146.622 302.072 146.622 298.921V287.209C146.74 287.239 146.859 287.298 147.007 287.328L162.913 291.222C161.758 292.292 160.958 292.887 160.543 293.57C161.432 292.679 162.38 291.936 163.387 291.341L211.46 303.142C211.134 310.514 211.549 316.073 212.497 320.472Z" fill="#3A6351"/>
<path d="M152.899 95.6277C155.239 95.0927 157.254 94.944 159.179 94.7359C161.104 94.5576 162.881 94.3793 164.629 94.1414C166.377 93.9036 168.094 93.6361 169.931 93.3091C171.797 92.9821 173.722 92.5065 176.062 92.1498C174.433 96.6384 169.961 99.4623 165.369 100.027C163.059 100.324 160.719 100.057 158.557 99.3434C156.424 98.5706 154.469 97.441 152.899 95.6277Z" fill="black"/>
<path d="M101.213 93.8738C105.389 95.9249 108.085 96.668 111.372 97.0842C113.002 97.2923 114.72 97.4409 116.586 97.6192C118.452 97.8273 120.436 98.0057 122.717 98.6299C121.177 100.384 119.281 101.484 117.237 102.256C115.164 102.97 112.913 103.297 110.573 102.97C108.262 102.673 105.922 101.662 104.175 100.027C102.398 98.3921 101.243 96.2221 101.213 93.8738Z" fill="black"/>
<path d="M150.648 41.468C143.391 54.9039 139.096 81.8948 99.8197 94.9741C81.2775 101.157 61.6689 88.6128 59.5659 69.1128C55.1229 27.8536 108.735 -2.13955 147.567 0.119601C174.759 1.51671 205.801 25.6836 204.438 59.2736C203.046 70.6288 200.291 79.2195 196.589 85.6997C194.071 90.0694 188.325 91.3179 184.178 88.4939C162.792 73.8392 175.825 59.7492 166.82 41.7355C163.503 35.1661 154.143 34.9878 150.648 41.468Z" fill="#FA8072"/>
<path opacity="0.2" d="M201.181 75.0284C199.907 79.1008 198.367 82.6381 196.59 85.7296C194.072 90.0993 188.326 91.3478 184.179 88.5238C162.556 73.6907 175.915 59.7791 167.207 42.241C165.607 39.0306 162.408 36.8309 158.854 36.6525C150.59 36.2364 148.279 46.6404 146.087 51.5748C140.015 65.7242 130.774 84.6595 99.8207 94.9743C81.3081 101.157 61.6699 88.613 59.5965 69.1427C59.3003 66.4079 59.2706 63.7624 59.4483 61.1168C63.684 76.2769 82.7002 85.5215 100.709 80.4682C148.398 67.0619 143.007 42.1221 154.233 33.68C157.432 31.2425 163.326 32.1342 166.407 34.7204C177.9 45.8972 173.842 73.1259 187.319 79.7845C194.724 83.8569 199.019 76.1877 201.655 72.3531C201.833 72.0261 201.536 73.8691 201.181 75.0284Z" fill="#1F1F2B"/>
<path opacity="0.2" d="M225.202 362.713C169.605 406.083 134.09 426.237 68.926 384.859C66.5268 383.343 64.72 381.202 63.624 378.765C117.799 405.785 151.626 385.542 201.862 346.334C205.801 343.272 207.371 338.041 205.801 333.285C204.972 330.788 203.965 328.766 202.869 326.953C198.633 320.116 191.761 315.39 183.971 313.457L151.833 305.58C148.782 304.837 146.62 302.073 146.62 298.922V287.21C146.738 287.239 146.857 287.299 147.005 287.329L162.911 291.223C161.756 292.293 160.956 292.887 160.541 293.571C161.43 292.679 162.378 291.936 163.385 291.342L188.207 297.435C187.762 291.847 187.97 284.802 189.095 275.706C189.391 275.409 189.688 275.111 189.984 274.784C198.248 266.045 205.149 251.658 200.854 240.392C192.709 219.079 204.024 212.747 204.498 182.07C204.527 179.246 204.527 175.204 202.572 170.447C200.914 166.434 202.395 165.305 205.771 168.04C207.075 169.08 208.289 170.12 209.355 171.072C211.34 172.855 212.436 175.412 212.406 178.057C211.873 217.057 210.303 243.008 224.225 268.958C222.773 278.292 217.856 286.764 212.466 292.055C211.962 296.127 211.666 299.813 211.488 303.113C211.458 303.886 211.429 304.659 211.399 305.372C211.399 305.669 211.37 305.967 211.37 306.264C211.34 308.137 211.34 309.89 211.429 311.555C211.429 311.763 211.458 311.941 211.458 312.15C211.518 313.368 211.607 314.557 211.725 315.657C211.755 315.895 211.784 316.133 211.814 316.341C211.903 317.084 212.021 317.797 212.11 318.451C212.14 318.689 212.169 318.897 212.229 319.135C212.317 319.581 212.406 319.997 212.495 320.443C215.724 335.573 224.965 336.881 229.142 349.634C230.712 354.419 229.142 359.651 225.202 362.713Z" fill="black"/>
<path opacity="0.2" d="M141.111 306.501L79.5605 327.339C80.6269 321.661 81.6339 314.794 82.5818 306.442L128.523 290.895C129.885 291.727 131.129 292.827 132.344 294.046C131.81 293.184 130.685 292.411 128.997 290.717L136.283 288.249C139.364 287.209 141.437 284.296 141.437 281.026V235.189C141.556 234.981 141.674 234.773 141.822 234.535L146.265 287.12V299.307C146.265 302.548 144.192 305.461 141.111 306.501Z" fill="black"/>
<path d="M167.888 454.505C172.597 457.389 177.722 462.204 183.053 467.971C195.02 480.931 210.659 489.968 227.898 493.565L305.859 509.854C311.99 511.133 318.299 508.338 321.38 502.839C323.72 498.648 325.852 494.219 326.563 492.316C329.644 483.815 327.955 474.303 322.505 467.079C265.042 390.833 248.543 408.014 231.63 394.638C231.156 394.251 230.594 393.954 230.001 393.806C217.502 390.595 208.023 391.963 199.789 395.232C189.629 399.245 181.009 406.379 174.73 415.327C168.628 424.007 164.363 433.133 162.615 442.912C161.816 447.52 163.948 452.098 167.888 454.505Z" fill="#405141"/>
<path opacity="0.14" d="M326.564 492.346C325.883 494.249 323.75 498.678 321.38 502.869C318.3 508.339 311.991 511.163 305.83 509.884L227.869 493.565C210.63 489.968 194.991 480.932 183.024 467.971C177.693 462.204 172.568 457.389 167.888 454.505C163.949 452.068 161.816 447.52 162.646 442.942C163.89 435.927 166.467 429.239 170.051 422.818C178.315 426.89 187.823 430.279 198.131 432.776L270.552 450.284C276.269 451.652 282.371 451.236 285.629 449.185C288.117 447.609 290.398 445.915 291.138 445.172C294.574 441.783 293.567 437.294 288.887 433.341C247.093 398.116 228.758 396.63 214.985 392.052C219.517 391.903 224.463 392.409 230.032 393.836C230.624 393.984 231.187 394.281 231.661 394.668C248.574 408.044 265.043 390.863 322.536 467.109C327.956 474.332 329.615 483.845 326.564 492.346Z" fill="black"/>
<path d="M151.033 474.214C146.413 475.79 140.903 475.373 134.535 472.995C127.219 470.261 118.836 474.006 117.178 481.17C116.407 484.529 116.644 488.423 117.385 492.525C118.214 497.133 119.636 501.651 121.413 506.02C126.034 517.316 130.803 528.553 128.848 540.8C128.315 555.722 124.819 573.527 143.302 577.124C145.791 575.162 142.769 569.098 144.191 559.883C143.066 546.15 149.671 549.242 150.5 519.427C152.751 513.363 155.773 513.095 159.06 511.52L151.033 474.214Z" fill="#F5C6AA"/>
<path opacity="0.28" d="M159.002 511.459C159.002 511.489 159.002 511.549 158.943 511.549C157.314 512.321 155.744 512.797 154.322 513.778C152.871 514.818 151.538 516.394 150.442 519.396V519.426C149.672 546.892 144.014 546.417 144.014 556.91C144.014 557.802 144.074 558.783 144.162 559.853C144.162 559.853 144.162 559.853 144.162 559.882C143.185 566.184 144.311 571 144.311 574.062C144.311 575.459 144.074 576.469 143.333 577.094C143.303 577.123 143.274 577.123 143.244 577.123C138.653 576.231 135.425 574.448 133.173 572.04C125.65 564.49 129.915 549.419 132.877 541.601C133.973 538.688 134.773 535.686 135.276 532.594C136.343 525.906 139.927 522.755 140.667 501.234C140.727 499.242 141.289 497.28 142.356 495.586C142.948 494.694 143.57 494.04 144.192 493.535C146.651 491.603 147.835 488.422 147.243 485.331L145.792 477.84C145.525 476.443 146.473 475.135 147.865 474.927C148.931 474.778 149.938 474.54 150.945 474.213C151.005 474.184 151.034 474.213 151.034 474.273L159.002 511.459Z" fill="#FA8072"/>
<path d="M140.046 601.201C135.188 607.622 121.622 612.527 116.675 602.39" stroke="black" stroke-width="2" stroke-miterlimit="10"/>
<path d="M154.352 471.27L242.976 457.448C284.681 453.376 302.72 471.568 315.841 487.53C321.736 494.694 321.292 505.187 314.834 511.876C296.677 530.573 288.887 526.322 253.076 519.337C229.499 514.284 184.328 511.252 163.475 514.997C161.283 515.383 158.973 514.521 157.729 512.649C157.61 512.5 157.521 512.322 157.433 512.143C152.279 502.304 148.161 489.136 148.369 478.167C148.428 474.689 150.975 471.805 154.352 471.27Z" fill="#405141"/>
<path opacity="0.2" d="M314.833 511.847C296.676 530.544 288.886 526.293 253.075 519.308C229.498 514.254 184.327 511.222 163.474 514.938C161.282 515.324 158.972 514.462 157.728 512.59C157.609 512.411 157.52 512.263 157.432 512.084C152.278 502.245 148.16 489.077 148.397 478.108C148.427 476.414 149.079 474.838 150.115 473.62C150.678 472.966 151.745 473.203 152.011 474.036C152.515 475.522 153.255 477.454 154.144 479.594C158.616 490.325 169.665 496.776 181.187 495.289C199.374 492.971 226.032 490.206 238.354 492.198C268.27 496.627 274.757 499.302 289.952 487.472C295.373 483.251 295.728 476.622 290.811 472.104C287.287 468.864 283.317 465.445 278.401 462.443C277.245 461.729 278.075 459.976 279.348 460.392C296.913 465.98 307.399 477.187 315.84 487.472C321.735 494.695 321.291 505.188 314.833 511.847Z" fill="black"/>
<path d="M212.289 176.601C258.763 200.203 259.029 238.489 280.03 282.81C283.733 290.598 281.837 300.081 275.054 305.372C266.79 311.823 256.897 313.012 246.233 311.644L147.035 287.299C143.985 286.556 141.822 283.791 141.822 280.64V211.617C141.822 210.666 143.066 210.309 143.57 211.142C150.116 222.17 153.789 229.631 159.091 239.441C160.631 242.294 161.579 245.445 161.786 248.685C162.26 256.295 164.541 265.094 162.231 268.304C158.795 272.912 160.601 271.693 163.623 271.098C204.173 266.372 224.966 259.981 237.229 266.372C239.184 267.145 244.13 270.147 250.558 274.011C245.819 268.899 241.228 267.234 239.48 266.015C235.718 263.905 229.32 262.448 223.1 262.24C220.316 262.151 217.857 260.278 217.028 257.603C208.586 230.404 209.208 201.303 212.289 176.601Z" fill="#FFE1CC"/>
<path opacity="0.24" d="M275.053 305.402C266.789 311.852 256.896 313.041 246.233 311.674L147.035 287.328C143.984 286.585 141.822 283.821 141.822 280.67V271.723C145.287 284.594 189.096 286.407 221.648 291.312C232.312 292.679 242.205 291.49 250.469 285.04C257.252 279.719 259.147 270.266 255.445 262.448C240.339 230.493 235.955 201.689 217.294 179.276C258.792 203.056 259.799 240.094 280.03 282.81C283.732 290.628 281.837 300.081 275.053 305.402Z" fill="#FA8072"/>
<path d="M76.7759 178.027C30.3018 201.629 24.2001 238.935 3.19936 283.286C-0.503168 291.074 3.67327 299.218 10.4563 304.539C14.0107 307.304 18.6907 310.722 23.7261 313.606C32.701 318.719 43.4532 319.699 53.2279 316.4L136.224 288.279C139.304 287.239 141.378 284.326 141.378 281.056V211.885C141.378 210.993 140.222 210.696 139.778 211.439C133.499 222.021 129.826 229.304 124.909 238.489C122.924 242.175 121.68 246.247 121.325 250.409C120.703 257.722 118.777 265.777 120.969 268.809C124.405 273.417 122.954 271.752 119.962 271.157C71 273.952 52.8428 265.45 40.5504 268.542C38.5955 269.315 33.5897 275.676 27.1621 279.54C31.9013 274.427 37.2626 269.612 39.0102 268.393C42.8608 266.253 58.2633 268.363 67.7713 269.552C70.8518 269.939 72.9549 264.826 73.8139 261.853C81.9298 234 79.8564 202.64 76.7759 178.027Z" fill="#FFD1BD"/>
<path opacity="0.24" d="M67.1489 241.552C72.0066 221.725 72.0954 200.471 70.644 181.327C72.599 180.198 74.6428 179.098 76.7754 177.998C79.619 200.917 81.6332 229.661 75.3537 255.998C68.3633 285.07 60.1881 260.338 64.72 248.745C65.6382 246.397 66.5565 244.019 67.1489 241.552Z" fill="#FA8072"/>
<path opacity="0.24" d="M141.436 211.855V281.027C141.436 284.297 139.363 287.18 136.282 288.25L53.2862 316.37C43.4819 319.67 32.7298 318.719 23.7845 313.576C18.749 310.693 14.0394 307.304 10.5146 304.51C5.33109 300.467 1.6878 294.76 1.89514 288.815C2.10248 288.993 2.3098 289.142 2.51714 289.32C6.07156 292.085 10.7516 295.503 15.787 298.386C24.762 303.499 35.5141 304.48 45.2887 301.181C45.2887 301.181 125.174 283.821 126.389 283.048C133.261 278.857 134.327 272.079 133.439 265.867V234.685C133.439 226.54 135.601 218.544 139.777 211.528C139.807 211.499 139.836 211.439 139.836 211.409C140.281 210.666 141.436 210.993 141.436 211.855Z" fill="#FA8072"/>
</svg>
