<svg width="156" height="18" viewBox="0 0 156 18" fill="none" xmlns="http://www.w3.org/2000/svg">
<path d="M23.064 0.503999L18.12 17.184H15.024L11.52 4.56L7.8 17.184L4.728 17.208L0 0.503999H2.904L6.36 14.088L10.104 0.503999H13.176L16.656 14.016L20.136 0.503999H23.064Z" fill="white"/>
<path d="M26.6046 0.503999V17.184H23.8686V0.503999H26.6046Z" fill="white"/>
<path d="M43.9007 17.184H41.1647L32.9327 4.728V17.184H30.1967V0.479999H32.9327L41.1647 12.912V0.479999H43.9007V17.184Z" fill="white"/>
<path d="M52.6927 8.832L57.8767 17.16H54.8047L51.0367 11.112L47.5087 17.16H44.4607L49.6447 8.832L44.4367 0.479999H47.5087L51.3007 6.576L54.8527 0.479999H57.9007L52.6927 8.832Z" fill="white"/>
<path d="M72.7399 0.263999V4.008H65.9719V6.984H70.9639V10.56H65.9719V17.184H61.2679V0.263999H72.7399Z" fill="white"/>
<path d="M79.425 0.263999V17.184H74.721V0.263999H79.425Z" fill="white"/>
<path d="M94.8479 0.263999V4.008H90.3359V17.184H85.6319V4.008H81.1679V0.263999H94.8479Z" fill="white"/>
<path d="M112.26 17.184H107.556L101.292 7.728V17.184H96.5882V0.263999H101.292L107.556 9.84V0.263999H112.26V17.184Z" fill="white"/>
<path d="M119.644 4.032V6.792H125.044V10.368H119.644V13.416H125.764V17.184H114.94V0.263999H125.764V4.032H119.644Z" fill="white"/>
<path d="M134.472 17.352C132.504 17.352 130.888 16.888 129.624 15.96C128.36 15.016 127.68 13.672 127.584 11.928H132.6C132.648 12.52 132.824 12.952 133.128 13.224C133.432 13.496 133.824 13.632 134.304 13.632C134.736 13.632 135.088 13.528 135.36 13.32C135.648 13.096 135.792 12.792 135.792 12.408C135.792 11.912 135.56 11.528 135.096 11.256C134.632 10.984 133.88 10.68 132.84 10.344C131.736 9.976 130.84 9.624 130.152 9.288C129.48 8.936 128.888 8.432 128.376 7.776C127.88 7.104 127.632 6.232 127.632 5.16C127.632 4.072 127.904 3.144 128.448 2.376C128.992 1.592 129.744 1 130.704 0.599999C131.664 0.2 132.752 0 133.968 0C135.936 0 137.504 0.464 138.672 1.392L135.456 5.256C135.44 4.744 135.28 4.36 134.976 4.104C134.688 3.848 134.312 3.72 133.848 3.72C133.496 3.72 133.208 3.824 132.984 4.032C132.76 4.24 132.648 4.536 132.648 4.92C132.648 5.24 132.768 5.52 133.008 5.76C133.264 5.984 133.576 6.184 133.944 6.36C134.312 6.52 134.856 6.728 135.576 6.984C136.648 7.352 137.528 7.72 138.216 8.088C138.92 8.44 139.52 8.944 140.016 9.6C140.528 10.24 140.784 11.056 140.784 12.048C140.784 13.056 140.528 13.96 140.016 14.76C139.52 15.56 138.792 16.192 137.832 16.656C136.888 17.12 135.768 17.352 134.472 17.352Z" fill="white"/>
<path d="M149.355 17.352C147.387 17.352 145.771 16.888 144.507 15.96C143.243 15.016 142.563 13.672 142.467 11.928H147.483C147.531 12.52 147.707 12.952 148.011 13.224C148.315 13.496 148.707 13.632 149.187 13.632C149.619 13.632 149.971 13.528 150.243 13.32C150.531 13.096 150.675 12.792 150.675 12.408C150.675 11.912 150.443 11.528 149.979 11.256C149.515 10.984 148.763 10.68 147.723 10.344C146.619 9.976 145.723 9.624 145.035 9.288C144.363 8.936 143.771 8.432 143.259 7.776C142.763 7.104 142.515 6.232 142.515 5.16C142.515 4.072 142.787 3.144 143.331 2.376C143.875 1.592 144.627 1 145.587 0.599999C146.547 0.2 147.635 0 148.851 0C150.819 0 152.387 0.464 153.555 1.392L150.339 5.256C150.323 4.744 150.163 4.36 149.859 4.104C149.571 3.848 149.195 3.72 148.731 3.72C148.379 3.72 148.091 3.824 147.867 4.032C147.643 4.24 147.531 4.536 147.531 4.92C147.531 5.24 147.651 5.52 147.891 5.76C148.147 5.984 148.459 6.184 148.827 6.36C149.195 6.52 149.739 6.728 150.459 6.984C151.531 7.352 152.411 7.72 153.099 8.088C153.803 8.44 154.403 8.944 154.899 9.6C155.411 10.24 155.667 11.056 155.667 12.048C155.667 13.056 155.411 13.96 154.899 14.76C154.403 15.56 153.675 16.192 152.715 16.656C151.771 17.12 150.651 17.352 149.355 17.352Z" fill="white"/>
</svg>
